<?xml version="1.0" standalone="no"?>
<!DOCTYPE svg PUBLIC "-//W3C//DTD SVG 20010904//EN"
 "http://www.w3.org/TR/2001/REC-SVG-20010904/DTD/svg10.dtd">
<svg version="1.0" xmlns="http://www.w3.org/2000/svg"
 width="998.000000pt" height="651.000000pt" viewBox="0 0 998.000000 651.000000"
 preserveAspectRatio="xMidYMid meet">

<g transform="translate(0.000000,651.000000) scale(0.100000,-0.100000)"
fill="#000000" stroke="none">
<path d="M5240 6033 c-854 -22 -956 -26 -967 -40 -7 -9 -13 -20 -13 -24 0 -7
55 -51 478 -382 97 -77 213 -167 258 -203 l81 -63 7 -58 c28 -237 140 -950
151 -962 7 -7 20 -11 28 -8 8 3 84 122 169 264 86 142 316 524 512 850 196
326 359 599 362 606 9 25 -24 47 -69 46 -23 -1 -472 -13 -997 -26z m880 -50
c0 -5 -28 -24 -63 -44 -34 -20 -257 -150 -496 -288 -239 -139 -440 -255 -447
-258 -6 -2 -131 88 -276 201 -381 298 -441 346 -437 347 2 1 387 11 854 24
468 12 853 23 858 24 4 0 7 -2 7 -6z m-283 -624 c-183 -305 -385 -639 -447
-743 -63 -104 -115 -185 -117 -180 -1 5 -30 194 -63 419 -33 226 -62 424 -65
440 -5 30 -5 30 306 210 172 99 402 232 513 296 111 64 202 115 204 114 1 -1
-147 -252 -331 -556z"/>
<path d="M3605 5693 c-184 -105 -209 -128 -164 -156 12 -7 34 1 90 35 41 25
102 60 137 79 53 29 62 38 60 59 -4 38 -33 34 -123 -17z"/>
<path d="M4390 5534 c-110 -64 -123 -75 -115 -96 13 -33 38 -28 134 28 118 68
129 79 115 102 -6 9 -17 18 -25 19 -8 1 -57 -22 -109 -53z"/>
<path d="M6606 5527 c-10 -7 -17 -21 -15 -29 2 -9 51 -52 108 -96 107 -82 141
-93 141 -47 0 16 -22 40 -81 86 -119 94 -132 101 -153 86z"/>
<path d="M3163 5388 c-139 -120 -184 -167 -181 -190 6 -44 36 -31 130 54 156
141 150 135 138 158 -16 29 -33 25 -87 -22z"/>
<path d="M4623 5388 c-71 -41 -91 -66 -70 -87 17 -17 31 -14 105 29 73 42 90
63 71 86 -17 20 -27 18 -106 -28z"/>
<path d="M4668 5127 c-76 -45 -140 -87 -142 -94 -8 -21 5 -43 25 -43 22 0 290
153 303 173 14 22 -1 47 -26 46 -13 -1 -85 -38 -160 -82z"/>
<path d="M7003 5193 c-29 -11 -8 -49 84 -156 108 -126 118 -134 139 -117 23
20 17 40 -33 99 -55 67 -165 181 -173 180 -3 0 -11 -3 -17 -6z"/>
<path d="M4875 4957 c-56 -34 -70 -47 -70 -67 0 -38 32 -36 105 8 75 46 90 63
71 86 -19 23 -28 20 -106 -27z"/>
<path d="M7349 4734 c-11 -14 -10 -21 5 -48 10 -17 45 -78 77 -135 70 -125 87
-141 109 -101 9 17 4 35 -32 103 -64 119 -116 197 -132 197 -7 0 -20 -7 -27
-16z"/>
<path d="M2751 4725 c-224 -42 -410 -224 -458 -449 -19 -89 -12 -208 17 -293
26 -76 89 -181 124 -207 25 -19 27 -19 44 -3 19 19 21 13 -46 113 -51 76 -74
149 -80 245 -8 157 37 278 143 385 201 200 504 205 711 12 187 -175 212 -460
58 -669 -38 -53 -41 -82 -8 -87 42 -6 128 126 159 245 20 76 19 225 -1 294
-41 140 -148 280 -264 346 -119 68 -266 93 -399 68z"/>
<path d="M4900 4691 c-112 -65 -135 -84 -127 -105 4 -9 13 -19 21 -22 17 -7
222 110 230 131 5 14 -17 45 -32 45 -4 0 -45 -22 -92 -49z"/>
<path d="M2724 4571 c-119 -40 -204 -116 -257 -229 -30 -63 -32 -74 -32 -177
0 -93 4 -119 24 -168 26 -63 53 -86 77 -66 19 15 18 27 -6 73 -69 137 -38 307
76 418 73 70 148 101 248 101 199 1 351 -140 364 -337 4 -71 -14 -160 -40
-193 -5 -7 -8 -22 -6 -35 5 -35 47 -31 69 7 25 43 49 140 49 201 0 66 -34 177
-70 229 -60 86 -149 152 -240 179 -70 21 -191 19 -256 -3z"/>
<path d="M2822 4410 c-60 -14 -108 -55 -139 -117 l-28 -58 -5 -663 -5 -663
-89 191 c-92 197 -114 228 -183 257 -104 43 -232 -19 -269 -130 -27 -83 -15
-149 59 -322 163 -378 345 -713 479 -882 105 -133 281 -245 446 -284 75 -19
107 -21 237 -16 274 10 456 77 600 222 92 91 141 180 178 318 21 79 22 101 22
532 0 449 0 450 -23 496 -58 118 -211 146 -307 58 -40 -37 -44 -39 -50 -19
-10 31 -54 79 -89 97 -37 20 -131 21 -166 3 -14 -7 -39 -25 -56 -41 l-30 -29
-17 35 c-23 48 -83 85 -149 92 -52 5 -76 -1 -160 -45 -5 -2 -8 175 -8 392 0
429 0 430 -56 503 -43 57 -127 89 -192 73z m105 -81 c18 -12 44 -40 56 -63 22
-41 22 -46 27 -601 l5 -560 25 0 c25 0 25 1 31 101 8 160 55 220 162 211 83
-7 117 -58 126 -187 5 -73 9 -85 25 -88 27 -6 46 24 46 72 0 52 31 120 64 141
39 26 97 30 135 10 41 -21 71 -85 78 -166 9 -99 61 -108 75 -14 20 141 166
202 243 101 38 -50 45 -118 45 -461 0 -544 -28 -663 -195 -830 -126 -127 -260
-182 -498 -206 -156 -15 -273 1 -402 56 -112 48 -259 177 -342 300 -86 129
-247 425 -331 610 -27 61 -60 133 -72 160 -71 156 -87 252 -55 315 32 62 129
89 195 55 32 -16 44 -39 203 -379 46 -99 91 -184 99 -190 8 -5 23 -6 32 -3 15
6 16 71 16 755 l0 748 23 44 c41 83 116 111 184 69z"/>
<path d="M7613 4233 c-20 -7 -16 -26 27 -159 22 -68 40 -130 40 -137 0 -22 27
-39 50 -32 29 9 26 32 -25 185 -49 143 -58 157 -92 143z"/>
<path d="M4596 3822 c-8 -13 -9 -629 -1 -642 9 -15 627 -14 643 2 17 17 17
619 0 636 -14 14 -633 18 -642 4z m537 -74 c-6 -7 -56 -76 -113 -153 l-103
-139 -52 57 c-53 58 -71 67 -93 45 -20 -20 -15 -29 54 -108 76 -87 89 -96 110
-79 19 15 213 276 221 295 17 45 23 -9 23 -206 l0 -220 -265 0 -265 0 0 260 0
260 246 0 c196 0 244 -3 237 -12z"/>
<path d="M5695 3817 c-3 -7 -4 -154 -3 -327 l3 -315 314 -3 c223 -2 318 1 327
9 19 16 21 618 2 637 -18 18 -637 17 -643 -1z m538 -69 c-6 -7 -56 -73 -113
-146 l-103 -133 -51 50 c-56 55 -79 62 -96 30 -10 -18 -3 -29 63 -97 64 -65
78 -75 95 -66 12 5 71 74 132 154 62 80 114 147 116 149 2 2 4 -98 4 -222 l0
-227 -260 0 -260 0 0 260 0 260 241 0 c192 0 239 -3 232 -12z"/>
<path d="M6780 3811 c-6 -12 -10 -130 -10 -319 0 -241 3 -302 14 -311 9 -8
104 -11 327 -9 l314 3 5 285 c3 157 3 303 0 325 l-5 40 -317 3 c-306 2 -318 2
-328 -17z m590 -311 l0 -260 -265 0 -265 0 0 260 0 260 265 0 265 0 0 -260z"/>
<path d="M7755 3674 c-9 -9 -14 -23 -11 -30 3 -7 10 -62 16 -121 18 -165 21
-178 50 -178 22 0 25 5 28 42 2 23 -4 95 -12 159 -18 139 -33 166 -71 128z"/>
<path d="M7792 3108 c-5 -7 -15 -74 -22 -148 -7 -74 -14 -138 -17 -143 -2 -4
-1 -16 2 -28 5 -15 14 -19 33 -17 32 4 38 28 50 202 6 95 5 122 -6 132 -17 17
-27 18 -40 2z"/>
<path d="M5270 2919 c-119 -23 -260 -130 -314 -237 -98 -192 -65 -404 86 -554
225 -223 602 -161 742 124 62 126 70 243 24 367 -82 223 -303 346 -538 300z
m251 -88 c143 -55 249 -214 249 -373 0 -299 -335 -494 -596 -347 -67 38 -139
116 -172 187 -24 50 -27 69 -27 162 0 93 3 112 27 162 47 101 147 190 251 224
61 20 198 12 268 -15z"/>
<path d="M7707 2543 c-3 -4 -14 -42 -26 -84 -12 -42 -32 -109 -46 -148 -21
-63 -22 -72 -9 -86 33 -33 46 -16 89 115 20 63 38 135 38 160 2 39 -1 45 -20
48 -11 2 -23 0 -26 -5z"/>
<path d="M6854 2310 c-56 -22 -54 -2 -54 -677 0 -552 -2 -623 -16 -637 -11
-11 -35 -16 -83 -16 l-68 0 -27 43 c-34 54 -106 102 -172 116 -32 6 -139 8
-290 4 -206 -5 -243 -4 -270 10 -25 13 -42 42 -104 177 -81 179 -176 355 -219
407 -47 56 -128 111 -198 133 -74 23 -209 27 -295 9 -179 -37 -315 -171 -363
-356 -16 -62 -64 -624 -68 -801 -2 -97 0 -107 17 -110 10 -2 22 0 27 5 5 5 21
151 34 324 45 578 45 572 98 672 78 147 255 232 442 211 194 -21 269 -104 453
-499 46 -99 91 -189 100 -199 10 -10 35 -27 56 -37 36 -16 65 -17 300 -12
l261 5 54 -29 c61 -31 90 -64 100 -114 8 -38 -1 -105 -16 -120 -6 -6 -185 -7
-486 -3 l-477 7 -91 124 c-73 99 -96 123 -113 121 -41 -6 -30 -42 48 -147 l76
-101 -80 0 c-65 0 -81 -3 -89 -17 -7 -15 -17 -160 -12 -200 1 -17 1991 -19
2022 -3 45 25 63 109 32 160 -26 44 -51 50 -218 50 l-155 0 0 721 c0 475 -4
727 -10 740 -22 40 -95 60 -146 39z m91 -82 c3 -13 4 -336 3 -718 l-3 -695
-159 -3 -159 -3 7 32 c3 17 6 39 6 49 0 15 11 18 74 22 87 4 124 25 143 79 9
25 12 197 12 640 1 333 4 609 8 612 3 4 19 7 34 7 21 0 30 -6 34 -22z m139
-1487 c233 -6 239 -7 247 -28 5 -13 3 -28 -6 -40 -13 -17 -53 -18 -966 -20
-524 -2 -956 0 -960 5 -5 4 -5 26 -2 50 l6 42 721 -1 c396 -1 828 -4 960 -8z"/>
<path d="M7496 1973 c-10 -21 -42 -82 -72 -136 -58 -102 -63 -130 -27 -135 25
-4 51 33 129 184 50 95 53 124 11 124 -17 0 -28 -10 -41 -37z"/>
<path d="M2592 1708 c-7 -7 -12 -16 -12 -20 0 -11 42 -76 118 -181 51 -69 69
-87 86 -85 39 6 30 42 -31 125 -32 44 -73 101 -90 126 -33 48 -50 56 -71 35z"/>
<path d="M2947 1263 c-25 -24 1 -58 143 -186 77 -70 112 -82 118 -42 2 14 -29
50 -112 128 -107 100 -133 117 -149 100z"/>
<path d="M3376 885 c-10 -26 2 -39 87 -91 134 -84 182 -108 200 -101 24 9 21
44 -5 60 -13 8 -71 44 -130 80 -109 68 -141 79 -152 52z"/>
<path d="M3882 613 c-6 -11 -8 -24 -4 -30 15 -23 276 -118 309 -111 12 2 18
12 18 28 0 23 -11 29 -135 73 -172 63 -176 63 -188 40z"/>
</g>
</svg>
